<?xml version="1.0" standalone="no"?><!DOCTYPE svg PUBLIC "-//W3C//DTD SVG 1.1//EN" "http://www.w3.org/Graphics/SVG/1.1/DTD/svg11.dtd"><svg t="1649646898069" class="icon" viewBox="0 0 1024 1024" version="1.1" xmlns="http://www.w3.org/2000/svg" p-id="2195" xmlns:xlink="http://www.w3.org/1999/xlink" width="200" height="200"><defs><style type="text/css"></style></defs><path d="M517.504 85.376a424.362667 424.362667 0 0 1 174.72 39.850667 430.421333 430.421333 0 0 1 199.722667 192.597333 424.106667 424.106667 0 0 1 39.082666 113.450667c8.832 46.165333 10.026667 93.824 3.498667 140.373333a425.258667 425.258667 0 0 1-128.213333 249.130667A425.984 425.984 0 0 1 512 938.666667a425.984 425.984 0 0 1-294.314667-117.888 425.258667 425.258667 0 0 1-128.213333-249.130667 430.634667 430.634667 0 0 1 3.498667-140.373333 424.106667 424.106667 0 0 1 39.082666-113.450667 430.421333 430.421333 0 0 1 199.722667-192.597333 424.362667 424.362667 0 0 1 174.72-39.850667h11.008z m-10.197333 64a358.698667 358.698667 0 0 0-148.437334 33.834667 366.08 366.08 0 0 0-173.781333 171.690666 360.704 360.704 0 0 0-32.213333 207.829334c5.162667 36.864 16.042667 72.874667 32.213333 106.368a363.690667 363.690667 0 0 0 189.909333 178.773333A362.624 362.624 0 0 0 512 874.666667a362.624 362.624 0 0 0 137.002667-26.794667 366.378667 366.378667 0 0 0 179.797333-159.274667 360.362667 360.362667 0 0 0 35.541333-90.325333 366.08 366.08 0 0 0 8.448-123.392 359.253333 359.253333 0 0 0-26.624-103.936 364.373333 364.373333 0 0 0-181.034666-187.733333 358.698667 358.698667 0 0 0-148.437334-33.834667h-9.386666z" p-id="2196" fill="#ffffff"></path><path d="M514.858667 440.789333a32.341333 32.341333 0 0 1 29.098666 29.994667c2.901333 97.706667 0.042667 195.541333 0.042667 293.333333a32.981333 32.981333 0 0 1-5.461333 17.877334 32.298667 32.298667 0 0 1-45.184 8.106666 31.36 31.36 0 0 1-8.917334-9.728 34.048 34.048 0 0 1-4.394666-14.378666c-2.901333-97.706667-0.042667-195.541333-0.042667-293.333334a32.128 32.128 0 0 1 34.858667-31.872z" p-id="2197" fill="#ffffff"></path><path d="M512 302.037333m-53.162667 0a53.162667 53.162667 0 1 0 106.325334 0 53.162667 53.162667 0 1 0-106.325334 0Z" p-id="2198" fill="#ffffff"></path></svg>